<svg width="4000" height="1024" viewBox="0 0 4000 1024" fill="none" xmlns="http://www.w3.org/2000/svg">
<g clip-path="url(#clip0_219_2)">
<rect width="4000" height="1024" fill="url(#paint0_linear_219_2)"/>
<line x1="644" y1="533" x2="644" y2="-55" stroke="black" stroke-opacity="0.32" stroke-width="12"/>
<line x1="1054" y1="471" x2="1054" y2="-117" stroke="black" stroke-opacity="0.32" stroke-width="12"/>
<line x1="1252" y1="724" x2="1252" y2="216" stroke="black" stroke-opacity="0.32" stroke-width="12"/>
<line x1="863" y1="706" x2="863" y2="2.59356e-07" stroke="black" stroke-opacity="0.32" stroke-width="12"/>
<line x1="1595" y1="193" x2="1595" y2="-395" stroke="black" stroke-opacity="0.32" stroke-width="12"/>
<path d="M1226 114L1367 255L1226 396L1085 255L1226 114Z" fill="url(#paint1_linear_219_2)"/>
<path d="M1085 724L618 642V686L1085 768V724Z" fill="url(#paint2_linear_219_2)"/>
<rect x="1480" y="75" width="162" height="321" fill="url(#paint3_linear_219_2)"/>
<path d="M1307.5 607L1418 803H1197L1307.5 607Z" fill="url(#paint4_linear_219_2)"/>
<path d="M825.5 412L715 216L936 216L825.5 412Z" fill="url(#paint5_linear_219_2)"/>
<rect x="1028" y="693" width="220" height="220" fill="url(#paint6_linear_219_2)"/>
<path d="M869 478L1455 396V440L869 522V478Z" fill="url(#paint7_linear_219_2)"/>
<rect x="1248" y="255" width="119" height="119" rx="59.5" fill="url(#paint8_linear_219_2)"/>
<rect x="1332" y="255" width="172" height="172" rx="86" fill="url(#paint9_linear_219_2)"/>
<path d="M1404 383.266H1712V509.499L1691 509.996C1637.15 400.275 1480.19 399.959 1427 510L1404 509.499V383.266Z" fill="url(#paint10_linear_219_2)"/>
<path d="M1383 427L1493 537L1383 647L1273 537L1383 427Z" fill="url(#paint11_linear_219_2)"/>
<path d="M669.5 427L840 597.5L669.5 768L499 597.5L669.5 427Z" fill="url(#paint12_linear_219_2)"/>
<rect x="1208" y="521" width="152" height="152" rx="76" fill="url(#paint13_linear_219_2)"/>
<rect x="1076" y="451" width="172" height="172" rx="86" fill="url(#paint14_linear_219_2)"/>
<rect x="710" y="314" width="232" height="232" rx="116" fill="url(#paint15_linear_219_2)"/>
<path d="M1718.37 316.272C1718.27 316.121 1718.13 316.002 1717.96 315.927C1714.61 314.417 1711.09 313.316 1707.48 312.647C1707.06 312.57 1706.65 312.77 1706.45 313.144C1706.16 313.686 1705.89 314.236 1705.63 314.795C1705.44 315.209 1705.01 315.453 1704.55 315.393C1700.85 314.904 1697.1 314.904 1693.4 315.393C1692.95 315.453 1692.51 315.209 1692.32 314.795C1692.06 314.237 1691.79 313.687 1691.51 313.145C1691.31 312.771 1690.89 312.571 1690.47 312.648C1686.86 313.322 1683.34 314.425 1679.98 315.935C1679.81 316.01 1679.67 316.132 1679.57 316.285C1672.57 326.754 1670.59 336.969 1671.47 347.041C1671.49 347.324 1671.64 347.582 1671.87 347.749C1675.83 350.612 1680.21 352.829 1684.86 354.315C1685.26 354.444 1685.7 354.3 1685.95 353.956C1686.7 352.901 1687.39 351.805 1688.01 350.672C1688.3 350.149 1688.04 349.5 1687.49 349.27C1686.54 348.874 1685.61 348.428 1684.71 347.936C1684.28 347.702 1684.25 347.097 1684.64 346.8V346.8C1684.84 346.646 1685.11 346.621 1685.34 346.726C1689.62 348.675 1694.27 349.684 1698.98 349.684C1703.69 349.684 1708.34 348.675 1712.62 346.726C1712.85 346.621 1713.13 346.658 1713.33 346.814V346.814C1713.71 347.111 1713.68 347.705 1713.26 347.936C1712.35 348.43 1711.42 348.877 1710.46 349.275C1709.91 349.504 1709.66 350.153 1709.95 350.676C1710.57 351.809 1711.26 352.904 1712.01 353.958C1712.26 354.3 1712.69 354.444 1713.09 354.317C1717.75 352.835 1722.14 350.619 1726.1 347.753C1726.33 347.586 1726.47 347.327 1726.5 347.045C1727.52 335.398 1724.46 325.271 1718.37 316.272ZM1689.78 341.156C1687.04 341.156 1684.79 338.676 1684.79 335.625C1684.79 332.574 1686.97 330.072 1689.77 330.072C1692.57 330.072 1694.81 332.574 1694.76 335.625C1694.72 338.676 1692.56 341.156 1689.78 341.156ZM1708.19 341.156C1705.45 341.156 1703.2 338.676 1703.2 335.625C1703.2 332.574 1705.38 330.072 1708.19 330.072C1710.99 330.072 1713.22 332.574 1713.17 335.625C1713.12 338.676 1710.97 341.156 1708.19 341.156Z" stroke="url(#paint16_linear_219_2)" stroke-width="5"/>
<rect x="1661.67" y="301.551" width="70" height="70" rx="7.5" transform="rotate(-4 1661.67 301.551)" stroke="url(#paint17_linear_219_2)" stroke-width="5"/>
<rect x="1401.03" y="678.586" width="70" height="70" rx="7.5" transform="rotate(2 1401.03 678.586)" stroke="url(#paint18_linear_219_2)" stroke-width="5"/>
<path d="M1428.27 707.45H1445.66" stroke="url(#paint19_linear_219_2)" stroke-width="5" stroke-linecap="round"/>
<path d="M1423.05 714.985H1440.44" stroke="url(#paint20_linear_219_2)" stroke-width="5" stroke-linecap="round"/>
<path d="M1428.27 722.52H1445.66" stroke="url(#paint21_linear_219_2)" stroke-width="5" stroke-linecap="round"/>
<ellipse cx="1444.79" cy="698.756" rx="3.1879" ry="3.47771" fill="url(#paint22_linear_219_2)"/>
<circle cx="1430.01" cy="733.533" r="3.47771" fill="url(#paint23_linear_219_2)"/>
<path fill-rule="evenodd" clip-rule="evenodd" d="M1426.14 695.236C1418.01 699.395 1411.76 706.322 1411.76 717.971C1411.76 724.579 1413.64 730.175 1417.76 734.134C1421.88 738.104 1428.62 740.788 1439.07 740.788C1443.42 740.788 1448.79 738.667 1452.19 734.864C1455.42 731.245 1456.98 725.986 1453.73 719.029C1449.82 710.648 1451.83 702.475 1453.19 696.909C1453.26 696.643 1453.32 696.383 1453.38 696.128C1453.73 694.69 1454 693.504 1454.14 692.496C1454.28 691.464 1454.24 690.867 1454.14 690.537C1454.09 690.331 1454.03 690.251 1453.83 690.145C1453.51 689.977 1452.8 689.761 1451.36 689.761C1444.5 689.761 1434.41 691.008 1426.14 695.236ZM1423.87 690.784C1433.11 686.061 1444.07 684.761 1451.36 684.761C1453.17 684.761 1454.82 685.014 1456.17 685.727C1457.63 686.501 1458.54 687.715 1458.95 689.159C1459.33 690.479 1459.27 691.889 1459.1 693.166C1458.92 694.466 1458.59 695.89 1458.24 697.307L1458.12 697.805C1456.72 703.549 1455.11 710.162 1458.27 716.914C1459.67 719.915 1460.37 722.756 1460.5 725.398C1460.26 725.342 1460.01 725.312 1459.75 725.312C1457.84 725.312 1456.3 726.921 1456.3 728.907C1456.3 730.776 1457.67 732.312 1459.41 732.486C1458.61 734.612 1457.41 736.525 1455.92 738.193C1451.52 743.116 1444.76 745.788 1439.07 745.788C1427.81 745.788 1419.64 742.888 1414.29 737.736C1408.93 732.574 1406.76 725.511 1406.76 717.971C1406.76 713.341 1407.61 709.319 1409.09 705.837C1409.1 705.837 1409.1 705.837 1409.11 705.837C1411.01 705.837 1412.56 704.227 1412.56 702.242C1412.56 701.604 1412.4 701.005 1412.12 700.486C1415.19 696.261 1419.34 693.099 1423.87 690.784Z" fill="url(#paint24_linear_219_2)"/>
<path fill-rule="evenodd" clip-rule="evenodd" d="M1466.24 196.438C1466.23 199.381 1463.18 201.183 1460.63 199.721C1458.91 198.729 1457.14 197.83 1455.29 197.081C1451.63 195.592 1447.83 194.59 1443.96 193.896C1441.25 193.413 1438.53 193.094 1435.8 192.927C1432.95 192.754 1430.11 192.734 1427.26 192.883C1424 193.054 1420.76 193.418 1417.56 194.117C1416.38 194.376 1415.22 194.701 1414.05 195.017C1413.34 195.211 1412.63 195.236 1411.92 195.024C1410.36 194.562 1409.29 193.146 1409.24 191.487C1409.2 189.877 1410.18 188.379 1411.72 187.865C1412.84 187.488 1414 187.191 1415.16 186.92C1418.02 186.249 1420.93 185.833 1423.86 185.562C1426.97 185.274 1430.09 185.182 1433.21 185.272C1440.89 185.495 1448.42 186.634 1455.71 189.185C1458.68 190.226 1461.54 191.517 1464.26 193.126C1465.23 193.699 1465.88 194.508 1466.13 195.626C1466.19 195.891 1466.2 196.167 1466.24 196.438Z" fill="url(#paint25_linear_219_2)"/>
<path fill-rule="evenodd" clip-rule="evenodd" d="M1430 205.766C1425.48 205.786 1420.85 206.383 1416.33 207.813C1415.6 208.046 1414.86 208.062 1414.14 207.75C1412.96 207.243 1412.2 205.988 1412.24 204.66C1412.28 203.275 1413.08 202.069 1414.33 201.662C1415.6 201.247 1416.9 200.887 1418.2 200.579C1421.4 199.821 1424.64 199.42 1427.92 199.287C1434.98 199.002 1441.87 199.975 1448.6 202.272C1452 203.434 1455.25 204.955 1458.32 206.903C1458.47 207 1458.62 207.099 1458.78 207.198C1460.38 208.242 1460.57 210.342 1459.81 211.681C1458.93 213.212 1457.12 213.688 1455.61 212.78C1454.75 212.267 1453.91 211.733 1453.04 211.26C1449.05 209.091 1444.82 207.684 1440.42 206.798C1437.04 206.115 1433.63 205.782 1430 205.766Z" fill="url(#paint26_linear_219_2)"/>
<path fill-rule="evenodd" clip-rule="evenodd" d="M1430.28 213.239C1435.56 213.295 1440.71 214.011 1445.72 215.709C1448.48 216.646 1451.12 217.857 1453.62 219.358C1453.84 219.488 1454.06 219.616 1454.26 219.769C1455.27 220.54 1455.53 221.938 1454.88 223.038C1454.25 224.105 1452.91 224.534 1451.77 224.026C1451.54 223.924 1451.32 223.787 1451.11 223.657C1446.86 221.127 1442.28 219.56 1437.42 218.81C1434.43 218.35 1431.42 218.191 1428.41 218.31C1424.51 218.464 1420.65 219.008 1416.84 219.857C1416.46 219.943 1416.06 220.021 1415.67 220.025C1414.49 220.038 1413.49 219.196 1413.28 218.055C1413.06 216.846 1413.66 215.713 1414.76 215.267C1414.99 215.173 1415.24 215.113 1415.49 215.057C1418.61 214.353 1421.75 213.821 1424.94 213.55C1426.72 213.399 1428.5 213.339 1430.28 213.239Z" fill="url(#paint27_linear_219_2)"/>
<rect x="1403.55" y="166.668" width="70" height="70" rx="7.5" transform="rotate(4 1403.55 166.668)" stroke="url(#paint28_linear_219_2)" stroke-width="5"/>
<path d="M1109.16 629.577L1098.45 624.327C1097.21 623.719 1095.73 623.975 1094.76 624.966L1059.71 657.515C1058.76 658.39 1058.76 659.902 1059.71 660.776L1062.57 663.427C1063.34 664.141 1064.51 664.194 1065.34 663.552L1107.55 630.939C1108.97 629.845 1111 630.874 1111 632.684V632.558C1111 631.287 1110.29 630.128 1109.16 629.577Z" fill="url(#paint29_linear_219_2)"/>
<path d="M1109.16 670.436L1098.45 675.592C1097.21 676.189 1095.73 675.937 1094.76 674.964L1059.71 643.004C1058.76 642.144 1058.76 640.66 1059.71 639.802L1062.57 637.199C1063.34 636.497 1064.51 636.445 1065.34 637.076L1107.55 669.099C1108.97 670.173 1111 669.163 1111 667.386V667.51C1111 668.758 1110.29 669.895 1109.16 670.436Z" fill="url(#paint30_linear_219_2)"/>
<path d="M1098.45 675.593C1097.21 676.19 1095.73 675.937 1094.76 674.965C1095.96 676.163 1098.01 675.314 1098.01 673.619V626.507C1098.01 624.812 1095.96 623.963 1094.76 625.162C1095.73 624.189 1097.21 623.937 1098.45 624.533L1109.16 629.681C1110.28 630.222 1111 631.36 1111 632.609V667.518C1111 668.766 1110.28 669.904 1109.16 670.445L1098.45 675.593Z" fill="url(#paint31_linear_219_2)"/>
<rect x="1048.59" y="616.029" width="70" height="70" rx="7.5" transform="rotate(-2 1048.59 616.029)" stroke="url(#paint32_linear_219_2)" stroke-width="5"/>
<mask id="path-38-outside-1_219_2" maskUnits="userSpaceOnUse" x="1516" y="461" width="57" height="43" fill="black">
<rect fill="white" x="1516" y="461" width="57" height="43"/>
<path fill-rule="evenodd" clip-rule="evenodd" d="M1562.69 466.979C1564.69 467.506 1566.27 469.051 1566.81 471.009C1567.81 474.587 1567.77 482.043 1567.77 482.043C1567.77 482.043 1567.77 489.462 1566.81 493.04C1566.27 494.998 1564.69 496.543 1562.69 497.07C1559.03 498.011 1544.39 498.011 1544.39 498.011C1544.39 498.011 1529.78 498.011 1526.09 497.032C1524.08 496.505 1522.5 494.961 1521.96 493.002C1521 489.462 1521 482.006 1521 482.006C1521 482.006 1521 474.587 1521.96 471.009C1522.5 469.051 1524.12 467.469 1526.09 466.942C1529.75 466 1544.39 466 1544.39 466C1544.39 466 1559.03 466 1562.69 466.979ZM1551.9 482.006L1539.72 488.86V475.151L1551.9 482.006Z"/>
</mask>
<path d="M1566.81 471.009L1561.99 472.336L1561.99 472.347L1561.99 472.357L1566.81 471.009ZM1562.69 466.979L1561.39 471.809L1561.4 471.812L1561.41 471.814L1562.69 466.979ZM1567.77 482.043L1562.77 482.018L1562.77 482.03V482.043H1567.77ZM1566.81 493.04L1571.63 494.367L1571.63 494.354L1571.64 494.34L1566.81 493.04ZM1562.69 497.07L1563.93 501.912L1563.95 501.909L1563.96 501.905L1562.69 497.07ZM1544.39 498.011L1544.39 503.011L1544.39 503.011L1544.39 498.011ZM1526.09 497.032L1527.36 492.199L1527.36 492.197L1526.09 497.032ZM1521.96 493.002L1517.14 494.315L1517.14 494.322L1517.14 494.33L1521.96 493.002ZM1521.96 471.009L1517.14 469.682L1517.14 469.695L1517.14 469.709L1521.96 471.009ZM1526.09 466.942L1524.84 462.099L1524.81 462.106L1524.79 462.112L1526.09 466.942ZM1544.39 466L1544.39 461L1544.39 461L1544.39 466ZM1539.72 488.86H1534.72V497.413L1542.18 493.217L1539.72 488.86ZM1551.9 482.006L1554.35 486.363L1562.09 482.006L1554.35 477.649L1551.9 482.006ZM1539.72 475.151L1542.18 470.795L1534.72 466.598V475.151H1539.72ZM1571.63 469.682C1570.61 465.963 1567.64 463.114 1563.96 462.144L1561.41 471.814C1561.74 471.899 1561.93 472.138 1561.99 472.336L1571.63 469.682ZM1567.77 482.043C1572.77 482.069 1572.77 482.069 1572.77 482.068C1572.77 482.068 1572.77 482.068 1572.77 482.068C1572.77 482.067 1572.77 482.066 1572.77 482.065C1572.77 482.063 1572.77 482.061 1572.77 482.058C1572.77 482.053 1572.77 482.046 1572.77 482.037C1572.77 482.019 1572.77 481.994 1572.77 481.962C1572.77 481.899 1572.77 481.809 1572.77 481.695C1572.77 481.466 1572.77 481.142 1572.76 480.743C1572.75 479.947 1572.72 478.844 1572.66 477.618C1572.54 475.324 1572.29 472.051 1571.62 469.661L1561.99 472.357C1562.33 473.545 1562.56 475.789 1562.67 478.118C1562.73 479.203 1562.75 480.188 1562.76 480.902C1562.77 481.258 1562.77 481.544 1562.77 481.737C1562.77 481.834 1562.77 481.908 1562.77 481.955C1562.77 481.979 1562.77 481.996 1562.77 482.007C1562.77 482.012 1562.77 482.016 1562.77 482.018C1562.77 482.018 1562.77 482.019 1562.77 482.019C1562.77 482.019 1562.77 482.019 1562.77 482.019C1562.77 482.018 1562.77 482.018 1562.77 482.018C1562.77 482.018 1562.77 482.018 1567.77 482.043ZM1571.64 494.34C1572.27 491.982 1572.53 488.748 1572.64 486.461C1572.71 485.243 1572.74 484.149 1572.76 483.359C1572.76 482.962 1572.77 482.64 1572.77 482.414C1572.77 482.301 1572.77 482.211 1572.77 482.149C1572.77 482.118 1572.77 482.093 1572.77 482.075C1572.77 482.066 1572.77 482.059 1572.77 482.054C1572.77 482.051 1572.77 482.049 1572.77 482.047C1572.77 482.046 1572.77 482.046 1572.77 482.045C1572.77 482.045 1572.77 482.044 1572.77 482.044C1572.77 482.044 1572.77 482.043 1567.77 482.043C1562.77 482.043 1562.77 482.043 1562.77 482.043C1562.77 482.043 1562.77 482.043 1562.77 482.042C1562.77 482.042 1562.77 482.042 1562.77 482.042C1562.77 482.042 1562.77 482.043 1562.77 482.044C1562.77 482.045 1562.77 482.049 1562.77 482.054C1562.77 482.065 1562.77 482.082 1562.77 482.106C1562.77 482.154 1562.77 482.228 1562.77 482.324C1562.77 482.518 1562.76 482.803 1562.76 483.158C1562.74 483.871 1562.72 484.855 1562.66 485.939C1562.54 488.256 1562.31 490.52 1561.98 491.74L1571.64 494.34ZM1563.96 501.905C1567.64 500.936 1570.61 498.086 1571.63 494.367L1561.99 491.713C1561.93 491.911 1561.74 492.15 1561.41 492.235L1563.96 501.905ZM1544.39 498.011C1544.39 503.011 1544.39 503.011 1544.39 503.011C1544.39 503.011 1544.39 503.011 1544.39 503.011C1544.39 503.011 1544.39 503.011 1544.39 503.011C1544.39 503.011 1544.4 503.011 1544.4 503.011C1544.41 503.011 1544.42 503.011 1544.43 503.011C1544.46 503.011 1544.51 503.011 1544.56 503.011C1544.67 503.011 1544.84 503.01 1545.04 503.009C1545.46 503.007 1546.06 503.004 1546.78 502.996C1548.23 502.981 1550.21 502.951 1552.31 502.891C1554.4 502.832 1556.65 502.741 1558.63 502.602C1560.48 502.472 1562.52 502.276 1563.93 501.912L1561.44 492.227C1561.03 492.334 1559.86 492.491 1557.93 492.626C1556.14 492.752 1554.05 492.838 1552.02 492.896C1550 492.953 1548.09 492.982 1546.68 492.997C1545.98 493.004 1545.4 493.008 1545 493.009C1544.8 493.01 1544.65 493.011 1544.54 493.011C1544.49 493.011 1544.45 493.011 1544.42 493.011C1544.41 493.011 1544.4 493.011 1544.39 493.011C1544.39 493.011 1544.39 493.011 1544.39 493.011C1544.39 493.011 1544.39 493.011 1544.39 493.011C1544.39 493.011 1544.39 493.011 1544.39 493.011C1544.39 493.011 1544.39 493.011 1544.39 498.011ZM1524.81 501.866C1526.24 502.246 1528.29 502.45 1530.14 502.585C1532.13 502.73 1534.38 502.824 1536.47 502.887C1538.57 502.949 1540.55 502.98 1541.99 502.996C1542.72 503.003 1543.31 503.007 1543.73 503.009C1543.94 503.01 1544.1 503.011 1544.21 503.011C1544.27 503.011 1544.31 503.011 1544.34 503.011C1544.35 503.011 1544.36 503.011 1544.37 503.011C1544.38 503.011 1544.38 503.011 1544.38 503.011C1544.38 503.011 1544.38 503.011 1544.38 503.011C1544.38 503.011 1544.39 503.011 1544.39 503.011C1544.39 503.011 1544.39 503.011 1544.39 498.011C1544.39 493.011 1544.39 493.011 1544.39 493.011C1544.39 493.011 1544.39 493.011 1544.39 493.011C1544.39 493.011 1544.39 493.011 1544.38 493.011C1544.38 493.011 1544.38 493.011 1544.38 493.011C1544.37 493.011 1544.36 493.011 1544.35 493.011C1544.32 493.011 1544.28 493.011 1544.23 493.011C1544.13 493.011 1543.97 493.01 1543.77 493.009C1543.38 493.007 1542.8 493.004 1542.1 492.996C1540.69 492.981 1538.79 492.951 1536.77 492.891C1534.75 492.831 1532.66 492.742 1530.87 492.611C1528.95 492.471 1527.78 492.308 1527.36 492.199L1524.81 501.866ZM1517.14 494.33C1518.17 498.048 1521.13 500.898 1524.81 501.868L1527.36 492.197C1527.04 492.112 1526.84 491.873 1526.78 491.675L1517.14 494.33ZM1521 482.006C1516 482.006 1516 482.006 1516 482.006C1516 482.007 1516 482.007 1516 482.007C1516 482.008 1516 482.009 1516 482.01C1516 482.011 1516 482.014 1516 482.016C1516 482.022 1516 482.029 1516 482.038C1516 482.055 1516 482.08 1516 482.111C1516 482.174 1516 482.264 1516 482.378C1516 482.605 1516.01 482.928 1516.02 483.326C1516.03 484.119 1516.06 485.217 1516.13 486.437C1516.25 488.724 1516.5 491.967 1517.14 494.315L1526.79 491.69C1526.46 490.498 1526.24 488.243 1526.11 485.916C1526.06 484.829 1526.03 483.842 1526.01 483.126C1526.01 482.77 1526 482.483 1526 482.288C1526 482.191 1526 482.117 1526 482.069C1526 482.045 1526 482.028 1526 482.017C1526 482.012 1526 482.008 1526 482.006C1526 482.005 1526 482.005 1526 482.005C1526 482.004 1526 482.005 1526 482.005C1526 482.005 1526 482.005 1526 482.005C1526 482.005 1526 482.006 1521 482.006ZM1517.14 469.709C1516.5 472.067 1516.25 475.301 1516.13 477.588C1516.06 478.806 1516.03 479.9 1516.02 480.69C1516.01 481.087 1516 481.409 1516 481.635C1516 481.748 1516 481.838 1516 481.9C1516 481.932 1516 481.956 1516 481.974C1516 481.983 1516 481.99 1516 481.995C1516 481.998 1516 482 1516 482.002C1516 482.003 1516 482.003 1516 482.004C1516 482.004 1516 482.005 1516 482.005C1516 482.005 1516 482.006 1521 482.006C1526 482.006 1526 482.006 1526 482.006C1526 482.006 1526 482.007 1526 482.007C1526 482.007 1526 482.007 1526 482.007C1526 482.007 1526 482.006 1526 482.005C1526 482.004 1526 482 1526 481.995C1526 481.984 1526 481.967 1526 481.943C1526 481.895 1526 481.821 1526 481.725C1526 481.531 1526.01 481.246 1526.01 480.891C1526.03 480.178 1526.06 479.194 1526.11 478.11C1526.23 475.793 1526.46 473.529 1526.79 472.309L1517.14 469.709ZM1524.79 462.112C1521.15 463.09 1518.16 465.979 1517.14 469.682L1526.78 472.336C1526.84 472.123 1527.09 471.848 1527.38 471.771L1524.79 462.112ZM1544.39 466C1544.39 461 1544.39 461 1544.39 461C1544.39 461 1544.38 461 1544.38 461C1544.38 461 1544.38 461 1544.38 461C1544.38 461 1544.38 461 1544.37 461C1544.36 461 1544.35 461 1544.34 461C1544.31 461 1544.27 461 1544.21 461C1544.1 461.001 1543.94 461.001 1543.73 461.002C1543.31 461.004 1542.72 461.008 1541.99 461.015C1540.54 461.03 1538.56 461.06 1536.47 461.12C1534.37 461.18 1532.12 461.27 1530.14 461.41C1528.29 461.539 1526.26 461.735 1524.84 462.099L1527.33 471.784C1527.74 471.677 1528.91 471.52 1530.84 471.385C1532.63 471.26 1534.72 471.174 1536.75 471.116C1538.77 471.058 1540.68 471.029 1542.09 471.015C1542.8 471.007 1543.37 471.004 1543.77 471.002C1543.97 471.001 1544.13 471.001 1544.23 471C1544.28 471 1544.32 471 1544.35 471C1544.36 471 1544.37 471 1544.38 471C1544.38 471 1544.38 471 1544.38 471C1544.39 471 1544.39 471 1544.39 471C1544.39 471 1544.39 471 1544.39 471C1544.39 471 1544.39 471 1544.39 466ZM1563.98 462.149C1562.54 461.766 1560.5 461.561 1558.65 461.426C1556.66 461.281 1554.4 461.187 1552.31 461.125C1550.21 461.062 1548.23 461.031 1546.78 461.016C1546.06 461.008 1545.46 461.004 1545.05 461.002C1544.84 461.001 1544.67 461.001 1544.56 461C1544.51 461 1544.46 461 1544.43 461C1544.42 461 1544.41 461 1544.4 461C1544.4 461 1544.39 461 1544.39 461C1544.39 461 1544.39 461 1544.39 461C1544.39 461 1544.39 461 1544.39 461C1544.39 461 1544.39 461 1544.39 466C1544.39 471 1544.39 471 1544.39 471C1544.39 471 1544.39 471 1544.39 471C1544.39 471 1544.39 471 1544.39 471C1544.39 471 1544.39 471 1544.39 471C1544.4 471 1544.41 471 1544.42 471C1544.45 471 1544.49 471 1544.54 471C1544.64 471.001 1544.8 471.001 1545 471.002C1545.4 471.004 1545.97 471.008 1546.68 471.015C1548.09 471.03 1550 471.06 1552.02 471.12C1554.04 471.181 1556.13 471.27 1557.92 471.4C1559.84 471.54 1561 471.703 1561.39 471.809L1563.98 462.149ZM1542.18 493.217L1554.35 486.363L1549.45 477.649L1537.27 484.503L1542.18 493.217ZM1534.72 475.151V488.86H1544.72V475.151H1534.72ZM1554.35 477.649L1542.18 470.795L1537.27 479.508L1549.45 486.363L1554.35 477.649Z" fill="url(#paint33_linear_219_2)" mask="url(#path-38-outside-1_219_2)"/>
<rect x="1506.67" y="449.551" width="70" height="70" rx="7.5" transform="rotate(-4 1506.67 449.551)" stroke="url(#paint34_linear_219_2)" stroke-width="5"/>
<path fill-rule="evenodd" clip-rule="evenodd" d="M506 472C495.512 472 487 480.512 487 491C487 501.488 495.512 510 506 510C516.488 510 525 501.488 525 491C525 480.512 516.488 472 506 472ZM506 496.7C502.846 496.7 500.3 494.154 500.3 491C500.3 487.846 502.846 485.3 506 485.3C509.154 485.3 511.7 487.846 511.7 491C511.7 494.154 509.154 496.7 506 496.7Z" fill="url(#paint35_linear_219_2)"/>
<path d="M527.356 486.25C532.183 487.639 537.882 486.25 537.882 486.25C536.229 493.47 530.985 497.992 523.423 498.543C520.516 505.288 513.809 510 506 510L511.7 491.884C517.559 473.261 520.563 472 534.459 472L544 472C542.404 479.03 536.904 484.401 527.356 486.25Z" fill="url(#paint36_linear_219_2)"/>
<rect x="478.668" y="456.551" width="70" height="70" rx="7.5" transform="rotate(-4 478.668 456.551)" stroke="url(#paint37_linear_219_2)" stroke-width="5"/>
</g>
<defs>
<linearGradient id="paint0_linear_219_2" x1="2000" y1="0" x2="2000" y2="1024" gradientUnits="userSpaceOnUse">
<stop/>
<stop offset="0.119792" stop-color="#281119"/>
<stop offset="1" stop-color="#9F0030"/>
</linearGradient>
<linearGradient id="paint1_linear_219_2" x1="1226" y1="264.122" x2="1226" y2="395.479" gradientUnits="userSpaceOnUse">
<stop offset="0.0001" stop-color="#A7AA00"/>
<stop offset="1" stop-color="#1E9500"/>
</linearGradient>
<linearGradient id="paint2_linear_219_2" x1="851.5" y1="642" x2="851.5" y2="768" gradientUnits="userSpaceOnUse">
<stop stop-color="#820097"/>
<stop offset="1" stop-color="#260038"/>
</linearGradient>
<linearGradient id="paint3_linear_219_2" x1="1561" y1="245.884" x2="1561" y2="395.407" gradientUnits="userSpaceOnUse">
<stop offset="0.0001" stop-color="#A7AA00"/>
<stop offset="1" stop-color="#1E9500"/>
</linearGradient>
<linearGradient id="paint4_linear_219_2" x1="1307.5" y1="607" x2="1307.5" y2="803" gradientUnits="userSpaceOnUse">
<stop stop-color="#820097"/>
<stop offset="1" stop-color="#260038"/>
</linearGradient>
<linearGradient id="paint5_linear_219_2" x1="825.5" y1="412" x2="825.5" y2="216" gradientUnits="userSpaceOnUse">
<stop stop-color="#260038"/>
<stop offset="1" stop-color="#820097"/>
</linearGradient>
<linearGradient id="paint6_linear_219_2" x1="1138" y1="810.116" x2="1138" y2="912.594" gradientUnits="userSpaceOnUse">
<stop offset="0.0001" stop-color="#A7AA00"/>
<stop offset="1" stop-color="#1E9500"/>
</linearGradient>
<linearGradient id="paint7_linear_219_2" x1="1162" y1="463.076" x2="1162" y2="521.767" gradientUnits="userSpaceOnUse">
<stop offset="0.0001" stop-color="#A7AA00"/>
<stop offset="1" stop-color="#1E9500"/>
</linearGradient>
<linearGradient id="paint8_linear_219_2" x1="1307.5" y1="255" x2="1307.5" y2="374" gradientUnits="userSpaceOnUse">
<stop stop-color="#820097"/>
<stop offset="1" stop-color="#260038"/>
</linearGradient>
<linearGradient id="paint9_linear_219_2" x1="1418" y1="255" x2="1418" y2="427" gradientUnits="userSpaceOnUse">
<stop stop-color="#820097"/>
<stop offset="1" stop-color="#260038"/>
</linearGradient>
<linearGradient id="paint10_linear_219_2" x1="1558" y1="383.266" x2="1558" y2="509.499" gradientUnits="userSpaceOnUse">
<stop offset="0.0001" stop-color="#A7AA00"/>
<stop offset="1" stop-color="#1E9500"/>
</linearGradient>
<linearGradient id="paint11_linear_219_2" x1="1383" y1="427" x2="1383" y2="647" gradientUnits="userSpaceOnUse">
<stop stop-color="#820097"/>
<stop offset="1" stop-color="#260038"/>
</linearGradient>
<linearGradient id="paint12_linear_219_2" x1="669.5" y1="427" x2="669.5" y2="768" gradientUnits="userSpaceOnUse">
<stop stop-color="#820097"/>
<stop offset="1" stop-color="#260038"/>
</linearGradient>
<linearGradient id="paint13_linear_219_2" x1="1284" y1="601.917" x2="1284" y2="672.719" gradientUnits="userSpaceOnUse">
<stop offset="0.0001" stop-color="#A7AA00"/>
<stop offset="1" stop-color="#1E9500"/>
</linearGradient>
<linearGradient id="paint14_linear_219_2" x1="1162" y1="451" x2="1162" y2="623" gradientUnits="userSpaceOnUse">
<stop stop-color="#820097"/>
<stop offset="1" stop-color="#260038"/>
</linearGradient>
<linearGradient id="paint15_linear_219_2" x1="826" y1="314" x2="826" y2="546" gradientUnits="userSpaceOnUse">
<stop stop-color="#820097"/>
<stop offset="1" stop-color="#260038"/>
</linearGradient>
<linearGradient id="paint16_linear_219_2" x1="1698.98" y1="312.524" x2="1698.98" y2="354.524" gradientUnits="userSpaceOnUse">
<stop stop-color="#6F7DFF"/>
<stop offset="1" stop-color="#2735B9"/>
</linearGradient>
<linearGradient id="paint17_linear_219_2" x1="1696.5" y1="299.232" x2="1696.5" y2="374.232" gradientUnits="userSpaceOnUse">
<stop stop-color="#6F7DFF"/>
<stop offset="1" stop-color="#2735B9"/>
</linearGradient>
<linearGradient id="paint18_linear_219_2" x1="1436.12" y1="676" x2="1436.12" y2="751" gradientUnits="userSpaceOnUse">
<stop stop-color="#32179F"/>
<stop offset="1" stop-color="#200B75"/>
</linearGradient>
<linearGradient id="paint19_linear_219_2" x1="1436.97" y1="707.45" x2="1436.97" y2="708.45" gradientUnits="userSpaceOnUse">
<stop stop-color="#32179F"/>
<stop offset="1" stop-color="#200B75"/>
</linearGradient>
<linearGradient id="paint20_linear_219_2" x1="1431.75" y1="714.985" x2="1431.75" y2="715.985" gradientUnits="userSpaceOnUse">
<stop stop-color="#32179F"/>
<stop offset="1" stop-color="#200B75"/>
</linearGradient>
<linearGradient id="paint21_linear_219_2" x1="1436.97" y1="722.52" x2="1436.97" y2="723.52" gradientUnits="userSpaceOnUse">
<stop stop-color="#32179F"/>
<stop offset="1" stop-color="#200B75"/>
</linearGradient>
<linearGradient id="paint22_linear_219_2" x1="1444.79" y1="695.278" x2="1444.79" y2="702.233" gradientUnits="userSpaceOnUse">
<stop stop-color="#32179F"/>
<stop offset="1" stop-color="#200B75"/>
</linearGradient>
<linearGradient id="paint23_linear_219_2" x1="1430.01" y1="730.055" x2="1430.01" y2="737.011" gradientUnits="userSpaceOnUse">
<stop stop-color="#32179F"/>
<stop offset="1" stop-color="#200B75"/>
</linearGradient>
<linearGradient id="paint24_linear_219_2" x1="1433.63" y1="684.761" x2="1433.63" y2="745.788" gradientUnits="userSpaceOnUse">
<stop stop-color="#32179F"/>
<stop offset="1" stop-color="#200B75"/>
</linearGradient>
<linearGradient id="paint25_linear_219_2" x1="1437.74" y1="200.239" x2="1437.74" y2="185.239" gradientUnits="userSpaceOnUse">
<stop stop-color="#51BF52"/>
<stop offset="1" stop-color="#0E480E"/>
</linearGradient>
<linearGradient id="paint26_linear_219_2" x1="1436.24" y1="213.239" x2="1436.24" y2="199.239" gradientUnits="userSpaceOnUse">
<stop stop-color="#51BF52"/>
<stop offset="1" stop-color="#0E480E"/>
</linearGradient>
<linearGradient id="paint27_linear_219_2" x1="1434.24" y1="224.239" x2="1434.24" y2="213.239" gradientUnits="userSpaceOnUse">
<stop stop-color="#51BF52"/>
<stop offset="1" stop-color="#0E480E"/>
</linearGradient>
<linearGradient id="paint28_linear_219_2" x1="1438.73" y1="164" x2="1438.73" y2="239" gradientUnits="userSpaceOnUse">
<stop stop-color="#51BF52"/>
<stop offset="1" stop-color="#0E480E"/>
</linearGradient>
<linearGradient id="paint29_linear_219_2" x1="1085" y1="624" x2="1085" y2="664" gradientUnits="userSpaceOnUse">
<stop stop-color="#1F9CF0"/>
<stop offset="1" stop-color="#0D5C91"/>
</linearGradient>
<linearGradient id="paint30_linear_219_2" x1="1085" y1="636.635" x2="1085" y2="675.913" gradientUnits="userSpaceOnUse">
<stop stop-color="#1F9CF0"/>
<stop offset="1" stop-color="#0D5C91"/>
</linearGradient>
<linearGradient id="paint31_linear_219_2" x1="1102.88" y1="624.213" x2="1102.88" y2="675.913" gradientUnits="userSpaceOnUse">
<stop stop-color="#1F9CF0"/>
<stop offset="1" stop-color="#0D5C91"/>
</linearGradient>
<linearGradient id="paint32_linear_219_2" x1="1083.5" y1="613.618" x2="1083.5" y2="688.618" gradientUnits="userSpaceOnUse">
<stop stop-color="#1F9CF0"/>
<stop offset="1" stop-color="#0D5C91"/>
</linearGradient>
<linearGradient id="paint33_linear_219_2" x1="1544.39" y1="466" x2="1544.39" y2="498.011" gradientUnits="userSpaceOnUse">
<stop stop-color="#FF0000"/>
<stop offset="1" stop-color="#7A0000"/>
</linearGradient>
<linearGradient id="paint34_linear_219_2" x1="1541.5" y1="447.232" x2="1541.5" y2="522.232" gradientUnits="userSpaceOnUse">
<stop stop-color="#FF0000"/>
<stop offset="1" stop-color="#7A0000"/>
</linearGradient>
<linearGradient id="paint35_linear_219_2" x1="506" y1="472" x2="506" y2="510" gradientUnits="userSpaceOnUse">
<stop stop-color="#00AEEF"/>
<stop offset="1" stop-color="#005F83"/>
</linearGradient>
<linearGradient id="paint36_linear_219_2" x1="525" y1="472" x2="525" y2="510" gradientUnits="userSpaceOnUse">
<stop stop-color="#00AEEF"/>
<stop offset="1" stop-color="#005F83"/>
</linearGradient>
<linearGradient id="paint37_linear_219_2" x1="513.5" y1="454.232" x2="513.5" y2="529.232" gradientUnits="userSpaceOnUse">
<stop stop-color="#00AEEF"/>
<stop offset="1" stop-color="#005F83"/>
</linearGradient>
<clipPath id="clip0_219_2">
<rect width="4000" height="1024" fill="white"/>
</clipPath>
</defs>
</svg>
