<svg width="36" height="22" xmlns="http://www.w3.org/2000/svg"><g fill="none" fill-rule="evenodd"><path d="M9 20l-2.5-5.162M9 20l3.5-5" stroke="#000" stroke-linecap="square"/><path d="M1 10.647h4.5" stroke="#000" stroke-width="1.5" stroke-linecap="square"/><path d="M1.5 1.5v18" stroke="#616161" opacity=".898" stroke-linecap="square"/><circle stroke="#000" fill="#8B572A" cx="18" cy="6" r="3"/><circle stroke="#000" fill="#D8D8D8" cx="9" cy="19" r="2"/><path d="M7 6h7.5C16.333 8.434 19 8.79 21 6c3.127 3 5.916 2.382 8.366-1.854C30.796.089 35 1.376 35 4.146V9.52c-7.81 4.11-16.655 5.833-20.53 6.48-2.481.1-4.97-.288-7.47-1.162V6z" stroke="#000" stroke-width="1.5" fill="#84F00D"/><path d="M15.5 13.5l-4-10.924M11.5 13.5l-4-10.924" stroke="#000" stroke-width="1.5" stroke-linecap="square"/><path d="M7 6H4.041c-1.388 2.34-1.388 6.436 0 9H7V6z" stroke="#000" stroke-width="1.5" fill="#3ED53E"/><rect stroke="#000" fill="#F5A623" x="4.5" y=".5" width="10" height="2" rx="1"/><rect stroke-opacity=".5" stroke="#000" fill="#F5A623" x="28.5" y="7.5" width="6" height="2" rx="1"/><rect fill="#C28219" x="8" y="13" width="11" height="2" rx="1"/><path fill-opacity=".546" fill="#FFF" d="M7 9.634V7.5H3.464L3 9.634z"/></g></svg>